# xmcd
#
# Track frame offsets:
#       150
#       12732
#       26105
#       35987
#       47377
#       62715
#       79817
#       91767
#       104020
#       113987
#
# Disc length: 1662 seconds
#
# Revision: 0
# Processed by: cddbd v1.4PL0 Copyright (c) Steve Scherf et al.
# Submitted via: CD-DA_X-Tractor v0.21
#
DISCID=85067c0a
DTITLE=Patsy Cline - Always
DYEAR=1900
DGENRE=
TTITLE0=Always
TTITLE1=I Fall To Pieces
TTITLE2=True Love
TTITLE3=South Of The Border
TTITLE4=That's My Desire
TTITLE5=Faded Love
TTITLE6=I'll Sail My Ship Alone
TTITLE7=Does Your Heart Beat For Me
TTITLE8=Foolin' 'Round
TTITLE9=I Love You So Much It Hurts Me
EXTD=
EXTT0=
EXTT1=
EXTT2=
EXTT3=
EXTT4=
EXTT5=
EXTT6=
EXTT7=
EXTT8=
EXTT9=
PLAYORDER=
